<?xml version="1.0" encoding="UTF-8" standalone="no"?>
<svg xmlns="http://www.w3.org/2000/svg" viewBox="0 0 800 480" width="800" height="480">
  <defs>
    <linearGradient id="logoGradient" x1="0%" y1="0%" x2="0%" y2="100%">
      <stop offset="0%" style="stop-color:#00ffff;stop-opacity:1" />
      <stop offset="50%" style="stop-color:#00aaff;stop-opacity:1" />
      <stop offset="100%" style="stop-color:#0066ff;stop-opacity:1" />
    </linearGradient>
  </defs>
  
  <!-- Background -->
  <rect width="800" height="480" fill="black"/>
  
  <!-- Hexagon Shape -->
  <path d="M400,80 L650,180 L650,380 L400,480 L150,380 L150,180 Z" fill="black" stroke="url(#logoGradient)" stroke-width="6"/>
  
  <!-- Top Icicles -->
  <g stroke="url(#logoGradient)" stroke-width="2" fill="url(#logoGradient)">
    <path d="M400,80 L410,100 L400,100 L400,80 Z" />
    <path d="M380,85 L390,105 L380,105 L380,85 Z" />
    <path d="M360,90 L370,110 L360,110 L360,90 Z" />
    <path d="M340,95 L350,115 L340,115 L340,95 Z" />
    <path d="M320,100 L330,120 L320,120 L320,100 Z" />
    <path d="M300,105 L310,125 L300,125 L300,105 Z" />
    <path d="M280,110 L290,130 L280,130 L280,110 Z" />
    <path d="M260,115 L270,135 L260,135 L260,115 Z" />
    <path d="M240,120 L250,140 L240,140 L240,120 Z" />
    <path d="M220,125 L230,145 L220,145 L220,125 Z" />
    <path d="M200,130 L210,150 L200,150 L200,130 Z" />
    <path d="M180,135 L190,155 L180,155 L180,135 Z" />
    <path d="M160,140 L170,160 L160,160 L160,140 Z" />
    
    <path d="M420,85 L430,105 L420,105 L420,85 Z" />
    <path d="M440,90 L450,110 L440,110 L440,90 Z" />
    <path d="M460,95 L470,115 L460,115 L460,95 Z" />
    <path d="M480,100 L490,120 L480,120 L480,100 Z" />
    <path d="M500,105 L510,125 L500,125 L500,105 Z" />
    <path d="M520,110 L530,130 L520,130 L520,110 Z" />
    <path d="M540,115 L550,135 L540,135 L540,115 Z" />
    <path d="M560,120 L570,140 L560,140 L560,120 Z" />
    <path d="M580,125 L590,145 L580,145 L580,125 Z" />
    <path d="M600,130 L610,150 L600,150 L600,130 Z" />
    <path d="M620,135 L630,155 L620,155 L620,135 Z" />
    <path d="M640,140 L650,160 L640,160 L640,140 Z" />
  </g>
  
  <!-- Radiating Lines -->
  <g stroke="white" stroke-width="1" opacity="0.2">
    <path d="M400,280 L150,180" />
    <path d="M400,280 L150,200" />
    <path d="M400,280 L150,220" />
    <path d="M400,280 L150,240" />
    <path d="M400,280 L150,260" />
    <path d="M400,280 L150,280" />
    <path d="M400,280 L150,300" />
    <path d="M400,280 L150,320" />
    <path d="M400,280 L150,340" />
    <path d="M400,280 L150,360" />
    <path d="M400,280 L150,380" />
    
    <path d="M400,280 L650,180" />
    <path d="M400,280 L650,200" />
    <path d="M400,280 L650,220" />
    <path d="M400,280 L650,240" />
    <path d="M400,280 L650,260" />
    <path d="M400,280 L650,280" />
    <path d="M400,280 L650,300" />
    <path d="M400,280 L650,320" />
    <path d="M400,280 L650,340" />
    <path d="M400,280 L650,360" />
    <path d="M400,280 L650,380" />
  </g>
  
  <!-- Top Decorative Swirls -->
  <path d="M225,180 C175,200 150,220 150,230 C150,240 175,260 225,280" fill="none" stroke="url(#logoGradient)" stroke-width="6"/>
  <path d="M575,180 C625,200 650,220 650,230 C650,240 625,260 575,280" fill="none" stroke="url(#logoGradient)" stroke-width="6"/>
  
  <!-- Center Circle with Tools -->
  <circle cx="400" cy="230" r="70" fill="black" stroke="white" stroke-width="4"/>
  
  <!-- Tools inside circle -->
  <g fill="white">
    <!-- Ruler -->
    <path d="M370,180 L350,280 L380,280 L400,180 Z" />
    <!-- Brush -->
    <path d="M420,180 C450,200 460,220 460,250 C460,280 440,300 420,280 C410,270 405,260 405,250 C405,240 410,230 420,220 Z" />
  </g>
  
  <!-- Text Banner -->
  <rect x="175" y="280" width="450" height="60" fill="black" stroke="url(#logoGradient)" stroke-width="4"/>
  
  <!-- VK BOUWMASTER Text -->
  <text x="400" y="325" font-family="Arial, sans-serif" font-size="44" font-weight="bold" text-anchor="middle" fill="white">VK BOUWMASTER</text>
  
  <!-- Bottom Decorative Elements -->
  <path d="M175,330 L225,330" stroke="url(#logoGradient)" stroke-width="4"/>
  <path d="M575,330 L625,330" stroke="url(#logoGradient)" stroke-width="4"/>
  <circle cx="175" cy="330" r="6" fill="url(#logoGradient)"/>
  <circle cx="625" cy="330" r="6" fill="url(#logoGradient)"/>
  
  <!-- Bottom Swirls -->
  <path d="M225,380 C175,360 150,340 150,330 C150,320 175,300 225,280" fill="none" stroke="url(#logoGradient)" stroke-width="6"/>
  <path d="M575,380 C625,360 650,340 650,330 C650,320 625,300 575,280" fill="none" stroke="url(#logoGradient)" stroke-width="6"/>
  
  <!-- Bottom Banner -->
  <path d="M300,380 C350,410 450,410 500,380" fill="url(#logoGradient)" opacity="0.7"/>
  
  <!-- Bottom Radiating Lines -->
  <g stroke="white" stroke-width="1" opacity="0.2">
    <path d="M400,280 L350,480" />
    <path d="M400,280 L370,480" />
    <path d="M400,280 L390,480" />
    <path d="M400,280 L410,480" />
    <path d="M400,280 L430,480" />
    <path d="M400,280 L450,480" />
  </g>
  
  <!-- Bottom Icicles -->
  <g stroke="url(#logoGradient)" stroke-width="2" fill="url(#logoGradient)">
    <path d="M400,480 L410,460 L400,460 L400,480 Z" />
    <path d="M380,475 L390,455 L380,455 L380,475 Z" />
    <path d="M360,470 L370,450 L360,450 L360,470 Z" />
    <path d="M340,465 L350,445 L340,445 L340,465 Z" />
    <path d="M320,460 L330,440 L320,440 L320,460 Z" />
    <path d="M300,455 L310,435 L300,435 L300,455 Z" />
    <path d="M280,450 L290,430 L280,430 L280,450 Z" />
    <path d="M260,445 L270,425 L260,425 L260,445 Z" />
    <path d="M240,440 L250,420 L240,420 L240,440 Z" />
    <path d="M220,435 L230,415 L220,415 L220,435 Z" />
    <path d="M200,430 L210,410 L200,410 L200,430 Z" />
    <path d="M180,425 L190,405 L180,405 L180,425 Z" />
    <path d="M160,420 L170,400 L160,400 L160,420 Z" />
    
    <path d="M420,475 L430,455 L420,455 L420,475 Z" />
    <path d="M440,470 L450,450 L440,450 L440,470 Z" />
    <path d="M460,465 L470,445 L460,445 L460,465 Z" />
    <path d="M480,460 L490,440 L480,440 L480,460 Z" />
    <path d="M500,455 L510,435 L500,435 L500,455 Z" />
    <path d="M520,450 L530,430 L520,430 L520,450 Z" />
    <path d="M540,445 L550,425 L540,425 L540,445 Z" />
    <path d="M560,440 L570,420 L560,420 L560,440 Z" />
    <path d="M580,435 L590,415 L580,415 L580,435 Z" />
    <path d="M600,430 L610,410 L600,410 L600,430 Z" />
    <path d="M620,425 L630,405 L620,405 L620,425 Z" />
    <path d="M640,420 L650,400 L640,400 L640,420 Z" />
  </g>
</svg>